<svg width="49" height="48" viewBox="0 0 49 48" fill="none" xmlns="http://www.w3.org/2000/svg">
<rect width="49" height="48" fill="#D8D6D3"/>
<g id="I1">
<path d="M-1249 -6053C-1249 -6054.1 -1248.1 -6055 -1247 -6055H26227C26228.1 -6055 26229 -6054.1 26229 -6053V15238C26229 15239.1 26228.1 15240 26227 15240H-1247C-1248.1 15240 -1249 15239.1 -1249 15238V-6053Z" fill="#BEBEBE"/>
<path d="M-1247 -6054H26227V-6056H-1247V-6054ZM26228 -6053V15238H26230V-6053H26228ZM26227 15239H-1247V15241H26227V15239ZM-1248 15238V-6053H-1250V15238H-1248ZM-1247 15239C-1247.55 15239 -1248 15238.6 -1248 15238H-1250C-1250 15239.7 -1248.66 15241 -1247 15241V15239ZM26228 15238C26228 15238.6 26227.6 15239 26227 15239V15241C26228.7 15241 26230 15239.7 26230 15238H26228ZM26227 -6054C26227.6 -6054 26228 -6053.55 26228 -6053H26230C26230 -6054.66 26228.7 -6056 26227 -6056V-6054ZM-1247 -6056C-1248.66 -6056 -1250 -6054.66 -1250 -6053H-1248C-1248 -6053.55 -1247.55 -6054 -1247 -6054V-6056Z" fill="black" fill-opacity="0.1"/>
<g id="Homescreen_V1" clip-path="url(#clip0_9350_2818)">
<rect width="1440" height="10311" transform="translate(-1149 -5955)" fill="white"/>
<g id="Categories">
<rect width="1440" height="532" transform="translate(-1149 -262)" fill="white"/>
<g id="Row">
<g id="WhyUs Cards" filter="url(#filter0_d_9350_2818)">
<rect x="-178.335" y="-36" width="405.33" height="242" rx="16" fill="white" shape-rendering="crispEdges"/>
<g id="Content">
<g id="globe_location_pin_24dp_E8EAED_FILL0_wght400_GRAD0_opsz24 1">
<path id="Vector" d="M24.3301 44C21.5634 44 18.9634 43.475 16.5301 42.425C14.0967 41.375 11.9801 39.95 10.1801 38.15C8.38008 36.35 6.95508 34.2333 5.90508 31.8C4.85508 29.3667 4.33008 26.7667 4.33008 24C4.33008 21.2333 4.85508 18.6333 5.90508 16.2C6.95508 13.7667 8.38008 11.65 10.1801 9.85C11.9801 8.05 14.0967 6.625 16.5301 5.575C18.9634 4.525 21.5634 4 24.3301 4C29.0301 4 33.1551 5.40833 36.7051 8.225C40.2551 11.0417 42.5801 14.6333 43.6801 19C43.8467 19.5333 43.7884 20.0333 43.5051 20.5C43.2217 20.9667 42.8134 21.2833 42.2801 21.45C41.7467 21.6167 41.2467 21.55 40.7801 21.25C40.3134 20.95 39.9967 20.5333 39.8301 20C39.1967 17.5667 38.0551 15.4 36.4051 13.5C34.7551 11.6 32.7301 10.1667 30.3301 9.2V10C30.3301 11.1 29.9384 12.0417 29.1551 12.825C28.3717 13.6083 27.4301 14 26.3301 14H22.3301V18C22.3301 18.5667 22.1384 19.0417 21.7551 19.425C21.3717 19.8083 20.8967 20 20.3301 20H16.3301V24H28.3301C28.8301 24 29.2134 24.225 29.4801 24.675C29.7467 25.125 29.7467 25.5833 29.4801 26.05C29.0801 26.8167 28.7884 27.6167 28.6051 28.45C28.4217 29.2833 28.3301 30.1333 28.3301 31C28.3301 32.7667 28.7301 34.425 29.5301 35.975C30.3301 37.525 31.2134 39 32.1801 40.4C32.4467 40.8 32.5301 41.2333 32.4301 41.7C32.3301 42.1667 32.0467 42.4833 31.5801 42.65C30.4467 43.1167 29.2717 43.4583 28.0551 43.675C26.8384 43.8917 25.5967 44 24.3301 44ZM22.3301 39.9V36C21.2301 36 20.2884 35.6083 19.5051 34.825C18.7217 34.0417 18.3301 33.1 18.3301 32V30L8.73008 20.4C8.63008 21 8.53841 21.6 8.45508 22.2C8.37174 22.8 8.33008 23.4 8.33008 24C8.33008 28.0333 9.65508 31.5667 12.3051 34.6C14.9551 37.6333 18.2967 39.4 22.3301 39.9ZM39.3301 44C39.0967 44 38.8967 43.9333 38.7301 43.8C38.5634 43.6667 38.4467 43.5 38.3801 43.3C38.0134 42.1333 37.4967 41.05 36.8301 40.05C36.1634 39.05 35.4467 38.0667 34.6801 37.1C33.9801 36.2333 33.4134 35.2833 32.9801 34.25C32.5467 33.2167 32.3301 32.1333 32.3301 31C32.3301 29.0667 33.0134 27.4167 34.3801 26.05C35.7467 24.6833 37.3967 24 39.3301 24C41.2634 24 42.9134 24.6833 44.2801 26.05C45.6467 27.4167 46.3301 29.0667 46.3301 31C46.3301 32.1333 46.1051 33.2083 45.6551 34.225C45.2051 35.2417 44.6467 36.2 43.9801 37.1C43.2134 38.0667 42.4967 39.05 41.8301 40.05C41.1634 41.05 40.6467 42.1333 40.2801 43.3C40.2134 43.5 40.0967 43.6667 39.9301 43.8C39.7634 43.9333 39.5634 44 39.3301 44ZM39.3301 38.35C39.6634 37.7833 40.0301 37.2583 40.4301 36.775C40.8301 36.2917 41.2134 35.8 41.5801 35.3C42.0467 34.6667 42.4551 33.9917 42.8051 33.275C43.1551 32.5583 43.3301 31.8 43.3301 31C43.3301 29.9 42.9384 28.9583 42.1551 28.175C41.3717 27.3917 40.4301 27 39.3301 27C38.2301 27 37.2884 27.3917 36.5051 28.175C35.7217 28.9583 35.3301 29.9 35.3301 31C35.3301 31.8 35.5051 32.5583 35.8551 33.275C36.2051 33.9917 36.6134 34.6667 37.0801 35.3C37.4801 35.8 37.8717 36.2917 38.2551 36.775C38.6384 37.2583 38.9967 37.7833 39.3301 38.35ZM39.3301 33.5C38.6301 33.5 38.0384 33.2583 37.5551 32.775C37.0717 32.2917 36.8301 31.7 36.8301 31C36.8301 30.3 37.0717 29.7083 37.5551 29.225C38.0384 28.7417 38.6301 28.5 39.3301 28.5C40.0301 28.5 40.6217 28.7417 41.1051 29.225C41.5884 29.7083 41.8301 30.3 41.8301 31C41.8301 31.7 41.5884 32.2917 41.1051 32.775C40.6217 33.2583 40.0301 33.5 39.3301 33.5Z" fill="#E46713"/>
</g>
</g>
</g>
</g>
</g>
</g>
</g>
<defs>
<filter id="filter0_d_9350_2818" x="-182.335" y="-38" width="413.33" height="250" filterUnits="userSpaceOnUse" color-interpolation-filters="sRGB">
<feFlood flood-opacity="0" result="BackgroundImageFix"/>
<feColorMatrix in="SourceAlpha" type="matrix" values="0 0 0 0 0 0 0 0 0 0 0 0 0 0 0 0 0 0 127 0" result="hardAlpha"/>
<feOffset dy="2"/>
<feGaussianBlur stdDeviation="2"/>
<feComposite in2="hardAlpha" operator="out"/>
<feColorMatrix type="matrix" values="0 0 0 0 0 0 0 0 0 0 0 0 0 0 0 0 0 0 0.1 0"/>
<feBlend mode="normal" in2="BackgroundImageFix" result="effect1_dropShadow_9350_2818"/>
<feBlend mode="normal" in="SourceGraphic" in2="effect1_dropShadow_9350_2818" result="shape"/>
</filter>
<clipPath id="clip0_9350_2818">
<rect width="1440" height="10311" fill="white" transform="translate(-1149 -5955)"/>
</clipPath>
</defs>
</svg>
