<svg width="49" height="48" viewBox="0 0 49 48" fill="none" xmlns="http://www.w3.org/2000/svg">
<g id="high_quality_24dp_E8EAED_FILL0_wght400_GRAD0_opsz24 1">
<path id="Vector" d="M30.17 30V31.5C30.17 31.9333 30.3117 32.2917 30.595 32.575C30.8783 32.8583 31.2367 33 31.67 33C32.1033 33 32.4617 32.8583 32.745 32.575C33.0283 32.2917 33.17 31.9333 33.17 31.5V30H34.67C35.2367 30 35.7117 29.8083 36.095 29.425C36.4783 29.0417 36.67 28.5667 36.67 28V20C36.67 19.4333 36.4783 18.9583 36.095 18.575C35.7117 18.1917 35.2367 18 34.67 18H28.67C28.1033 18 27.6283 18.1917 27.245 18.575C26.8617 18.9583 26.67 19.4333 26.67 20V28C26.67 28.5667 26.8617 29.0417 27.245 29.425C27.6283 29.8083 28.1033 30 28.67 30H30.17ZM15.67 26H19.67V28.5C19.67 28.9333 19.8117 29.2917 20.095 29.575C20.3783 29.8583 20.7367 30 21.17 30C21.6033 30 21.9617 29.8583 22.245 29.575C22.5283 29.2917 22.67 28.9333 22.67 28.5V19.5C22.67 19.0667 22.5283 18.7083 22.245 18.425C21.9617 18.1417 21.6033 18 21.17 18C20.7367 18 20.3783 18.1417 20.095 18.425C19.8117 18.7083 19.67 19.0667 19.67 19.5V23H15.67V19.5C15.67 19.0667 15.5283 18.7083 15.245 18.425C14.9617 18.1417 14.6033 18 14.17 18C13.7367 18 13.3783 18.1417 13.095 18.425C12.8117 18.7083 12.67 19.0667 12.67 19.5V28.5C12.67 28.9333 12.8117 29.2917 13.095 29.575C13.3783 29.8583 13.7367 30 14.17 30C14.6033 30 14.9617 29.8583 15.245 29.575C15.5283 29.2917 15.67 28.9333 15.67 28.5V26ZM29.67 27V21H33.67V27H29.67ZM8.67001 40C7.57001 40 6.62835 39.6083 5.84501 38.825C5.06168 38.0417 4.67001 37.1 4.67001 36V12C4.67001 10.9 5.06168 9.95833 5.84501 9.175C6.62835 8.39167 7.57001 8 8.67001 8H40.67C41.77 8 42.7117 8.39167 43.495 9.175C44.2783 9.95833 44.67 10.9 44.67 12V36C44.67 37.1 44.2783 38.0417 43.495 38.825C42.7117 39.6083 41.77 40 40.67 40H8.67001ZM8.67001 36H40.67V12H8.67001V36Z" fill="#E46713"/>
</g>
</svg>
