<svg width="1411" height="836" viewBox="0 0 1411 836" fill="none" xmlns="http://www.w3.org/2000/svg">
<path d="M42.4794 198.07C106.994 207.538 144.563 206.889 180.379 195.001C245.44 174.164 285.739 144.114 343.901 72.2569C383.96 23.9027 392.467 17.467 425.066 12.2782C477.924 4.03902 517.362 30.7354 557.293 102.3C571.502 127.506 594.314 168.027 608.613 192.818C642.637 253.122 696.865 313.407 743.119 341.563C776.15 362.107 783.836 365.056 844.354 379.317C894.646 391.389 927.951 396.781 985.135 401.637C1077.38 409.219 1128.72 421.949 1169.08 447.105C1184.4 456.035 1200.98 467.407 1205.86 472.363C1214.36 479.832 1214.09 481.079 1203.56 491.427C1177.8 514.595 1051.62 662.719 1040.36 682.036C1009.07 736.613 1037.73 805.33 1101.76 828.165C1151.85 846.713 1220.05 827.853 1263.94 783.796C1286.68 760.85 1288.62 757.354 1297.75 711.938C1306.29 672.046 1306.47 657.31 1299.99 623.763C1290.94 574.455 1273.35 528.968 1251.93 501.35L1236.09 481.008L1251.78 460.465C1260.13 449.215 1268.51 440.58 1270.21 440.945C1271.92 441.309 1280.13 455.671 1288.86 473.185C1297.67 490.283 1308.76 507.867 1313.25 511.871C1320.71 518.682 1320.88 517.851 1313.93 505.932C1310.15 498.604 1300.17 478.648 1292.58 461.377C1278.78 431.478 1278.48 430.11 1289.28 418.516C1357.24 345.28 1435.17 197.034 1441.74 135.858C1444.88 101.764 1430.44 66.5134 1402.24 40.0503C1364.59 5.04299 1285.74 -6.09646 1248.01 3.64289C1183.44 19.3718 1157.13 100.655 1179 220.503C1188.08 272.426 1216.05 349.819 1242.22 394.1L1260.87 426.34L1246.9 441.603C1239.18 449.944 1230.52 459.826 1227.27 463.91C1222.35 470.245 1221.22 470.001 1213.28 462.653C1192.24 441.633 1156.19 421.311 1120.63 409.787C1076.64 396.023 1057.15 392.719 990.343 388.411C958.688 386.413 913.276 379.298 863.764 369.132C787.074 352.712 787.074 352.712 747.671 328.63C683.614 289.275 649.83 247.274 578.538 116.844C556.772 76.9826 523.556 35.1038 503.18 22.0495C482.804 8.99514 445.613 2.33594 418.482 6.95721C390.694 11.8724 359.293 36.4395 333.053 72.9763C289.934 132.844 215.928 184.36 155.931 195.417C124.947 201.386 82.5323 199.693 38.6122 191.158C20.3447 187.682 3.42568 186.232 1.27653 187.945C-1.52963 189.952 14.2876 193.773 42.4794 198.07ZM1101.81 630.875C1122.19 607.858 1155.87 569.872 1176.99 546.146C1198.02 522.836 1215.59 501.826 1216.04 499.748C1218.79 486.866 1230.35 496.728 1247.73 526.525C1283.46 587.195 1296.19 694.222 1272.81 739.627C1248.59 786.157 1208.38 815.792 1162 821.507C1115.05 827.101 1079.94 813.499 1060.37 782.8C1045.81 759.256 1044.5 745.938 1055.05 707.78C1063.34 677.395 1069.06 667.32 1101.81 630.875ZM1218.23 37.2506C1237.56 13.5751 1258.05 6.66336 1288.07 13.5252C1330.5 23.4785 1409.39 59.3983 1421 102.3C1427.13 123.605 1426.22 133.405 1417.63 162.422C1411.75 181.588 1399.57 210.706 1390.63 227.479C1366.68 272.763 1284.56 404.468 1270.49 411.887C1268.43 413.184 1237.87 339.582 1223.91 304.869C1205.1 259.554 1196.29 228.551 1192.95 196.98C1186.12 137.284 1186.39 136.037 1194.15 94.2402C1199.45 66.6929 1205.41 52.7572 1218.23 37.2506Z" fill="#FFEFE4"/>
</svg>
