<svg width="32" height="32" viewBox="0 0 32 32" fill="none" xmlns="http://www.w3.org/2000/svg">
<g id="Icon / envelope">
<path id="icon" d="M26.6667 5.33301H5.33335C3.86269 5.33301 2.66669 6.52901 2.66669 7.99967V23.9997C2.66669 25.4703 3.86269 26.6663 5.33335 26.6663H26.6667C28.1374 26.6663 29.3334 25.4703 29.3334 23.9997V7.99967C29.3334 6.52901 28.1374 5.33301 26.6667 5.33301ZM26.6667 7.99967V8.68101L16 16.9783L5.33335 8.68234V7.99967H26.6667ZM5.33335 23.9997V12.0583L15.1814 19.7183C15.4148 19.9017 15.7031 20.0014 16 20.0014C16.2969 20.0014 16.5852 19.9017 16.8187 19.7183L26.6667 12.0583L26.6694 23.9997H5.33335Z" fill="#E46713"/>
</g>
</svg>
