<svg width="32" height="32" viewBox="0 0 32 32" fill="none" xmlns="http://www.w3.org/2000/svg">
<g id="Icon / map">
<g id="icon">
<path d="M16.0001 18.667C18.9414 18.667 21.3334 16.275 21.3334 13.3337C21.3334 10.3923 18.9414 8.00033 16.0001 8.00033C13.0587 8.00033 10.6667 10.3923 10.6667 13.3337C10.6667 16.275 13.0587 18.667 16.0001 18.667ZM16.0001 10.667C17.4707 10.667 18.6667 11.863 18.6667 13.3337C18.6667 14.8043 17.4707 16.0003 16.0001 16.0003C14.5294 16.0003 13.3334 14.8043 13.3334 13.3337C13.3334 11.863 14.5294 10.667 16.0001 10.667Z" fill="#E46713"/>
<path d="M15.2268 29.0857C15.4524 29.2468 15.7228 29.3334 16.0001 29.3334C16.2774 29.3334 16.5478 29.2468 16.7734 29.0857C17.1788 28.799 26.7054 21.9203 26.6668 13.3337C26.6668 7.45233 21.8814 2.66699 16.0001 2.66699C10.1188 2.66699 5.33343 7.45233 5.33343 13.327C5.29476 21.9203 14.8214 28.799 15.2268 29.0857ZM16.0001 5.33366C20.4121 5.33366 24.0001 8.92166 24.0001 13.3403C24.0281 19.2577 18.1494 24.571 16.0001 26.3137C13.8521 24.5697 7.9721 19.255 8.0001 13.3337C8.0001 8.92166 11.5881 5.33366 16.0001 5.33366Z" fill="#E46713"/>
</g>
</g>
</svg>
