<svg width="32" height="32" viewBox="0 0 32 32" fill="none" xmlns="http://www.w3.org/2000/svg">
<g id="warehouse_24dp_E8EAED_FILL0_wght400_GRAD0_opsz24 1">
<path id="Vector" d="M16 6.86686L5.33329 11.1335V25.3335H7.99996V17.3335C7.99996 16.6002 8.26107 15.9724 8.78329 15.4502C9.30551 14.928 9.93329 14.6669 10.6666 14.6669H21.3333C22.0666 14.6669 22.6944 14.928 23.2166 15.4502C23.7388 15.9724 24 16.6002 24 17.3335V25.3335H26.6666V11.1335L16 6.86686ZM2.66663 25.3335V11.1335C2.66663 10.578 2.81663 10.078 3.11663 9.63353C3.41663 9.18908 3.82218 8.86686 4.33329 8.66686L15 4.4002C15.3111 4.26686 15.6444 4.2002 16 4.2002C16.3555 4.2002 16.6888 4.26686 17 4.4002L27.6666 8.66686C28.1777 8.86686 28.5833 9.18908 28.8833 9.63353C29.1833 10.078 29.3333 10.578 29.3333 11.1335V25.3335C29.3333 26.0669 29.0722 26.6946 28.55 27.2169C28.0277 27.7391 27.4 28.0002 26.6666 28.0002H21.3333V17.3335H10.6666V28.0002H5.33329C4.59996 28.0002 3.97218 27.7391 3.44996 27.2169C2.92774 26.6946 2.66663 26.0669 2.66663 25.3335ZM12 28.0002V25.3335H14.6666V28.0002H12ZM14.6666 24.0002V21.3335H17.3333V24.0002H14.6666ZM17.3333 28.0002V25.3335H20V28.0002H17.3333Z" fill="#E46713"/>
</g>
</svg>
